<?xml version="1.0" encoding="UTF-8"?>
<svg version="1.1" xmlns="http://www.w3.org/2000/svg" width="1024" height="1024">
<path d="M0 0 C2.2681979 -0.00417927 4.53639372 -0.00966003 6.8045857 -0.01631981 C13.00073153 -0.03071528 19.19674368 -0.02654815 25.39289665 -0.019153 C31.40074476 -0.01489705 37.4085603 -0.0247467 43.41639867 -0.03406062 C56.45467934 -0.05367694 69.49292015 -0.05608458 82.53121206 -0.05086542 C93.94406428 -0.04629946 105.35690078 -0.04691834 116.7697525 -0.05270576 C118.30359734 -0.05346265 119.83744217 -0.05421863 121.371287 -0.05497371 C123.68296725 -0.05611897 125.9946475 -0.05726885 128.30632775 -0.05843295 C149.78472889 -0.0691304 171.26312481 -0.07387103 192.74152756 -0.06596279 C193.55034008 -0.06566562 194.35915259 -0.06536844 195.19247458 -0.06506227 C201.75961553 -0.0626136 208.32675642 -0.06000188 214.8938973 -0.05737813 C240.50100609 -0.04727874 266.10804928 -0.05562834 291.71514893 -0.07887268 C320.52051283 -0.10497821 349.32583726 -0.11778435 378.13121343 -0.11068493 C381.20605929 -0.10996893 384.28090516 -0.10929453 387.35575104 -0.10864449 C388.11279134 -0.10847468 388.86983163 -0.10830487 389.64981255 -0.10812991 C401.04891298 -0.10583247 412.44797661 -0.11377737 423.84706879 -0.12693596 C436.82005911 -0.14188518 449.79296352 -0.14263978 462.76595208 -0.12486505 C469.37905343 -0.11617579 475.99202663 -0.1141717 482.60512924 -0.1295166 C488.67009698 -0.14341487 494.73476143 -0.13853443 500.79971185 -0.11927737 C502.98261585 -0.11553279 505.16554445 -0.11839426 507.34842643 -0.12888902 C543.09628313 -0.28840505 573.51486035 10.5304833 599.1428833 35.82518005 C604.8518451 41.60247389 609.98065234 47.49979874 614.3303833 54.38768005 C615.30684814 55.93262146 615.30684814 55.93262146 616.30303955 57.5087738 C624.86514105 71.77894297 631.13267019 87.04568307 634.3303833 103.38768005 C634.55468018 104.52592224 634.77897705 105.66416443 635.0100708 106.8368988 C637.81960248 124.02122614 636.95857482 141.27245849 634.12628174 158.37815857 C633.89920246 159.78437906 633.67263451 161.1906822 633.44654465 162.59706211 C631.26010643 176.11541675 628.90936309 189.60587649 626.5155623 203.0888536 C625.88631571 206.63760288 625.26097988 210.18704194 624.63511658 213.73638916 C623.53539382 219.97031076 622.43349992 226.20384525 621.33010864 232.43711853 C619.53081844 242.6020338 617.7360402 252.76774333 615.94195557 262.93357849 C615.46452105 265.63872503 614.9870795 268.34387032 614.50963539 271.04901516 C614.18419442 272.89292973 613.85875903 274.73684528 613.53332907 276.58076179 C612.52437751 282.29736929 611.51505011 288.0139103 610.50545007 293.7304033 C604.88946178 325.52910594 599.29083052 357.33084598 593.69863367 389.13374066 C592.80345447 394.22454155 591.90818226 399.31532609 591.0129112 404.40611082 C587.4512157 424.65906628 583.88961473 444.91203839 580.32929265 465.16523534 C579.27341879 471.17160752 578.21744362 477.1779619 577.16143799 483.18431091 C576.95380538 484.36532887 576.74617277 485.54634682 576.53224826 486.7631532 C574.26372665 499.66583698 571.99324841 512.56817192 569.71762085 525.46960449 C569.51570039 526.6144413 569.31377993 527.75927812 569.10574067 528.93880695 C568.29113085 533.55730434 567.47651244 538.17580019 566.66162419 542.79424846 C564.10448176 557.28857856 561.55931789 571.78493699 559.02857751 586.28390098 C557.28602971 596.26564111 555.53633071 606.24611113 553.78166038 616.22572732 C552.74408418 622.12908348 551.71020096 628.03302983 550.6856823 633.9386673 C549.73613222 639.41199894 548.77663634 644.88349567 547.80972171 650.35378551 C547.45978357 652.34379584 547.11342894 654.33444057 546.77113461 656.32577991 C540.21684387 694.41246553 524.11799684 728.512732 492.12408447 751.56468201 C482.72679401 758.05759505 472.52812084 762.77057584 461.8303833 766.70018005 C460.90830078 767.04593079 460.90830078 767.04593079 459.96759033 767.39866638 C445.10004694 772.55065425 430.20020901 772.82224417 414.6607666 772.77536011 C412.3925687 772.77953938 410.12437288 772.78502014 407.85618091 772.79167992 C401.66003507 772.80607538 395.46402292 772.80190825 389.26786995 772.79451311 C383.26002184 772.79025715 377.2522063 772.80010681 371.24436793 772.80942073 C358.20608726 772.82903705 345.16784645 772.83144469 332.12955454 772.82622553 C320.71670232 772.82165957 309.30386582 772.82227845 297.8910141 772.82806587 C296.35716927 772.82882276 294.82332443 772.82957874 293.2894796 772.83033382 C290.97779935 772.83147907 288.6661191 772.83262896 286.35443886 772.83379306 C264.87603771 772.84449051 243.39764179 772.84923114 221.91923904 772.8413229 C221.11042653 772.84102573 220.30161401 772.84072855 219.46829202 772.84042237 C212.90115107 772.83797371 206.33401018 772.83536198 199.7668693 772.83273824 C174.15976051 772.82263885 148.55271732 772.83098844 122.94561768 772.85423279 C94.14025377 772.88033832 65.33492934 772.89314445 36.52955317 772.88604504 C33.45470731 772.88532904 30.37986144 772.88465464 27.30501556 772.88400459 C26.54797527 772.88383478 25.79093497 772.88366497 25.01095405 772.88349002 C13.61185362 772.88119258 2.21278999 772.88913747 -9.18630219 772.90229607 C-22.15929251 772.91724528 -35.13219692 772.91799989 -48.10518548 772.90022516 C-54.71828683 772.89153589 -61.33126003 772.88953181 -67.94436264 772.90487671 C-74.00933038 772.91877498 -80.07399483 772.91389454 -86.13894525 772.89463747 C-88.32184925 772.8908929 -90.50477785 772.89375437 -92.68765983 772.90424912 C-128.43551653 773.06376515 -158.85409374 762.24487681 -184.4821167 736.95018005 C-190.1910785 731.17288621 -195.31988574 725.27556137 -199.6696167 718.38768005 C-200.32059326 717.35771912 -200.97156982 716.32775818 -201.64227295 715.2665863 C-210.20437445 700.99641714 -216.47190359 685.72967704 -219.6696167 669.38768005 C-219.89391357 668.24943787 -220.11821045 667.11119568 -220.3493042 665.9384613 C-223.08526955 649.20409792 -222.42447242 632.25359303 -219.67498779 615.58348083 C-219.45372486 614.20892356 -219.2327558 612.83431895 -219.01204491 611.45967293 C-215.8057178 591.65921132 -212.25890488 571.91378289 -208.76055217 552.16340756 C-207.70246124 546.1854819 -206.64817883 540.20688442 -205.59346008 534.22836304 C-203.7771122 523.93531666 -201.9586745 513.64264107 -200.13870239 503.35023499 C-197.26732148 487.11156989 -194.40021787 470.87215114 -191.53411865 454.6325531 C-191.29065231 453.25306997 -191.04718581 451.87358687 -190.80371916 450.49410379 C-189.82284848 444.93645141 -188.84199286 439.37879637 -187.86119753 433.82113069 C-186.62027325 426.7894954 -185.37920834 419.75788497 -184.13781929 412.72633171 C-176.859682 371.5009279 -169.6004567 330.27224181 -162.36102295 289.0400238 C-161.90784458 286.45909881 -161.45466617 283.87817382 -161.00148773 281.29724884 C-156.90492185 257.96587991 -152.81022128 234.63418383 -148.71729213 211.30217665 C-147.12764083 202.24054425 -145.53730677 193.17903182 -143.94651097 184.11760026 C-143.03631045 178.93269847 -142.12647204 173.74773383 -141.21765327 168.56258965 C-139.47322231 158.61089413 -137.72395869 148.66010452 -135.96107763 138.71165901 C-135.10868624 133.89492966 -134.26883959 129.07624352 -133.44010776 124.2553888 C-132.92369938 121.26174507 -132.39874549 118.26963991 -131.87192786 115.27781236 C-131.52556397 113.29481167 -131.18987031 111.30995592 -130.85479259 109.32501698 C-124.86363194 75.54336014 -107.94776195 43.33161603 -79.79681396 22.90232849 C-55.17064182 5.81024559 -29.63829676 -0.08942173 0 0 Z M-33.52508545 105.6572113 C-40.16890737 115.02417998 -41.67559827 125.93081797 -43.60443115 137.00291443 C-43.88537784 138.5860239 -44.16691444 140.16902878 -44.44898796 141.75193787 C-45.21831943 146.07941708 -45.97907845 150.40836482 -46.73832488 154.73762321 C-47.56005981 159.41467752 -48.38960925 164.0903468 -49.21803284 168.76622009 C-51.01089888 178.89465651 -52.79352679 189.024878 -54.57398224 199.15550232 C-55.65317727 205.29568654 -56.73460414 211.43547621 -57.81652832 217.57518005 C-62.56451751 244.5222727 -67.29549276 271.47233729 -72.02178693 298.42324239 C-75.83563141 320.1703527 -79.65350635 341.91675597 -83.47195625 363.66305804 C-83.90848215 366.14911241 -84.34499414 368.63516921 -84.78149223 371.12122846 C-91.56274311 409.74329896 -98.36345736 448.36190251 -105.18133545 486.9775238 C-105.39214461 488.17158923 -105.60295377 489.36565465 -105.82015109 490.59590387 C-109.88601616 513.62573458 -113.95354118 536.6552716 -118.02483636 559.68414301 C-119.51908936 568.13640677 -121.01263705 576.58879496 -122.50567645 585.04127318 C-123.52917627 590.83519639 -124.55369511 596.62893811 -125.57905489 602.42253244 C-126.19953756 605.92977783 -126.81908053 609.43718873 -127.43835413 612.94464779 C-127.72185705 614.54922572 -128.00575286 616.1537343 -128.29008043 617.75816631 C-128.67614419 619.93697072 -129.06079296 622.11602045 -129.44509888 624.2951355 C-129.65899954 625.50471137 -129.8729002 626.71428724 -130.0932827 627.96051693 C-132.50467994 642.29986132 -132.43053574 653.42019128 -124.39227295 666.0009613 C-118.40345554 674.29839313 -111.35258746 679.16002314 -101.6696167 682.38768005 C-98.79918936 682.48635897 -95.95304189 682.52699335 -93.08243465 682.52190113 C-92.19050778 682.52425336 -91.29858091 682.52660559 -90.37962595 682.5290291 C-87.36347945 682.53573458 -84.34737588 682.53526041 -81.33122253 682.53485107 C-79.15786503 682.53814874 -76.98450814 682.5418741 -74.81115204 682.54599255 C-68.81720434 682.55603183 -62.82326665 682.55973244 -56.82931173 682.56238186 C-50.37307582 682.56627923 -43.91684789 682.57585798 -37.46061707 682.58459473 C-22.59537303 682.60372299 -7.73012777 682.61361784 7.1351256 682.62205541 C14.4799979 682.62626075 21.82486938 682.63148291 29.16974099 682.63673994 C54.30869539 682.65463161 79.44765002 682.66962765 104.58660984 682.67706013 C106.16517323 682.67753489 107.74373662 682.67801077 109.32230001 682.67848779 C110.10513209 682.67872417 110.88796417 682.67896054 111.69451844 682.67920408 C115.66078655 682.68040529 119.62705465 682.68162073 123.59332275 682.68284607 C124.77400379 682.68320629 124.77400379 682.68320629 125.97853697 682.6835738 C151.49756767 682.69146632 177.01655188 682.71489643 202.53556228 682.74740201 C229.51107954 682.78170016 256.4865696 682.80141129 283.46210903 682.80470437 C286.42351497 682.80512191 289.3849209 682.80560147 292.34632683 682.80612755 C293.44011141 682.80631234 293.44011141 682.80631234 294.55599265 682.80650086 C306.29116086 682.80883299 318.02627508 682.82449377 329.76142405 682.84496939 C341.55815439 682.86522584 353.35481432 682.87037215 365.15155888 682.86119876 C371.5426009 682.85664563 377.93346766 682.85859935 384.32448578 682.87796021 C390.17541009 682.895532 396.0260305 682.89464259 401.87695777 682.87906291 C403.99345561 682.87667775 406.10997416 682.88105722 408.22644026 682.89289156 C422.84911878 682.96958933 433.05530036 682.37730043 444.06866455 671.8134613 C453.76378519 661.41506766 455.89909205 649.35462319 458.26519775 635.77244568 C458.54614444 634.18933621 458.82768104 632.60633133 459.10975456 631.02342224 C459.87908603 626.69594302 460.63984505 622.36699528 461.39909148 618.03773689 C462.22082641 613.36068258 463.05037585 608.68501331 463.87879944 604.00914001 C465.67166548 593.8807036 467.45429339 583.75048211 469.23474884 573.61985779 C470.31394388 567.47967357 471.39537074 561.33988389 472.47729492 555.20018005 C477.22528411 528.25308741 481.95625936 501.30302282 486.68255353 474.35211772 C490.49639801 452.60500741 494.31427295 430.85860414 498.13272285 409.11230206 C498.56924875 406.6262477 499.00576074 404.1401909 499.44225883 401.65413165 C506.22350971 363.03206115 513.02422396 324.41345759 519.84210205 285.7978363 C520.15831579 284.00673817 520.15831579 284.00673817 520.48091769 282.17945623 C524.54678276 259.14962553 528.61430778 236.12008851 532.68560296 213.0912171 C534.17985596 204.63895334 535.67340365 196.18656515 537.16644305 187.73408693 C538.18994287 181.94016371 539.21446171 176.146422 540.23982149 170.35282767 C540.86030416 166.84558227 541.47984713 163.33817138 542.09912074 159.83071232 C542.38262365 158.22613438 542.66651946 156.62162581 542.95084703 155.01719379 C543.33691079 152.83838939 543.72155956 150.65933965 544.10586548 148.48022461 C544.31976614 147.27064874 544.5336668 146.06107286 544.7540493 144.81484318 C547.16544654 130.47549878 547.09130235 119.35516883 539.05303955 106.7743988 C533.06422214 98.47696697 526.01335406 93.61533697 516.3303833 90.38768005 C513.45995596 90.28900114 510.61380849 90.24836676 507.74320126 90.25345898 C506.40531095 90.24993063 506.40531095 90.24993063 505.04039255 90.24633101 C502.02424605 90.23962553 499.00814248 90.2400997 495.99198914 90.24050903 C493.81863163 90.23721137 491.64527474 90.23348601 489.47191864 90.22936755 C483.47797094 90.21932828 477.48403325 90.21562766 471.49007833 90.21297824 C465.03384243 90.20908087 458.57761449 90.19950213 452.12138367 90.19076538 C437.25613963 90.17163712 422.39089437 90.16174227 407.525641 90.1533047 C400.1807687 90.14909936 392.83589722 90.1438772 385.49102561 90.13862017 C360.35207121 90.1207285 335.21311658 90.10573246 310.07415676 90.09829998 C308.49559337 90.09782522 306.91702998 90.09734933 305.33846659 90.09687232 C304.55563451 90.09663594 303.77280243 90.09639957 302.96624816 90.09615603 C298.99998005 90.09495482 295.03371195 90.09373937 291.06744385 90.09251404 C290.28032316 90.09227389 289.49320246 90.09203374 288.68222963 90.09178631 C263.16319893 90.08389379 237.64421472 90.06046368 212.12520432 90.02795809 C185.14968706 89.99365994 158.174197 89.97394882 131.19865757 89.97065574 C128.23725163 89.9702382 125.2758457 89.96975863 122.31443977 89.96923256 C121.58525005 89.96910937 120.85606033 89.96898618 120.10477395 89.96885925 C108.36960575 89.96652712 96.63449152 89.95086634 84.89934255 89.93039071 C73.10261221 89.91013427 61.30595228 89.90498796 49.50920772 89.91416135 C43.1181657 89.91871448 36.72729895 89.91676076 30.33628082 89.8973999 C24.48535651 89.87982811 18.6347361 89.88071752 12.78380883 89.89629719 C10.667311 89.89868236 8.55079244 89.89430289 6.43432634 89.88246854 C-10.80017776 89.79207142 -22.02877134 91.59540394 -33.52508545 105.6572113 Z " fill="#117865" transform="translate(304.66961669921875,125.61231994628906)"/>
<path d="M0 0 C4.95569302 4.34979501 8.78312083 9.19124994 12.3515625 14.703125 C12.83932663 15.44106796 13.32709076 16.17901093 13.82963562 16.9393158 C14.88297672 18.53477047 15.93262636 20.13266734 16.97891235 21.73275757 C19.25482563 25.21314665 21.54865854 28.68159625 23.84156799 32.15080261 C25.05292301 33.98373072 26.26338957 35.81724628 27.4730072 37.65132141 C33.41789594 46.65796599 39.46150342 55.59651529 45.51382446 64.53115845 C56.42273991 80.64179363 67.22427681 96.82109084 77.9375 113.0625 C78.86594223 114.46802628 78.86594223 114.46802628 79.81314087 115.90194702 C81.57451197 118.5697323 83.33276244 121.23954414 85.08984375 123.91015625 C85.60108795 124.68438934 86.11233215 125.45862244 86.6390686 126.25631714 C97.78585883 143.23994026 104.44512254 157.73567806 100.3046875 178.484375 C96.20647591 190.6756935 87.10769544 199.34474478 78.24023438 208.21142578 C76.94129657 209.52099317 75.64296286 210.83115999 74.34518433 212.14187622 C70.83555124 215.68214075 67.31629023 219.21267583 63.79417992 222.74052286 C61.58904457 224.95002725 59.38593051 227.16152707 57.18348694 229.37371445 C49.48536848 237.10552721 41.77903142 244.82904522 34.06542969 252.54541016 C26.89855999 259.71531295 19.75060914 266.90370289 12.61112356 274.10086453 C6.46113268 280.29876475 0.29759539 286.48297665 -5.87636709 292.65699756 C-9.55489837 296.33606468 -13.22779569 300.02034229 -16.88691711 303.7187233 C-20.33198218 307.19987476 -23.79373464 310.66355427 -27.26845932 314.11509323 C-28.53295296 315.3767474 -29.79161673 316.64427937 -31.04356766 317.91838074 C-41.65242637 328.70304016 -52.5560287 336.97407741 -68.26098633 337.29223633 C-77.19197531 337.3568352 -84.94634445 337.33986739 -93 333 C-93.70898438 332.63777344 -94.41796875 332.27554687 -95.1484375 331.90234375 C-105.68717987 325.94654107 -112.22952451 316.88416899 -115.8125 305.39453125 C-118.69280905 292.81318128 -117.57152537 278.41696771 -110.62100887 267.30830956 C-104.86214855 259.10771761 -97.24366886 252.10073564 -90.16577148 245.05224609 C-89.21842794 244.10518556 -88.27130638 243.15790293 -87.3243866 242.2104187 C-84.78591077 239.6716593 -82.24439294 237.13596616 -79.70226169 234.60086775 C-77.0339095 231.93882322 -74.36844304 229.27389225 -71.70265198 226.60928345 C-66.66881092 221.57853406 -61.63242931 216.55033628 -56.59509951 211.52308047 C-50.85418723 205.79339703 -45.11615923 200.06082874 -39.37835586 194.32803226 C-27.58874697 182.54883868 -15.79557278 170.77322145 -4 159 C-5.24469246 155.81049243 -6.49713766 153.01338319 -8.42895508 150.18334961 C-8.91685516 149.46324707 -9.40475525 148.74314453 -9.90744019 148.0012207 C-10.43943024 147.22609131 -10.97142029 146.45096191 -11.51953125 145.65234375 C-12.08213654 144.82379883 -12.64474182 143.99525391 -13.22439575 143.14160156 C-14.44456055 141.34505111 -15.66670405 139.54984331 -16.89059448 137.75582886 C-20.17551443 132.93874258 -23.44325877 128.11004198 -26.7109375 123.28125 C-27.3889592 122.27972397 -28.0669809 121.27819794 -28.76554871 120.24632263 C-36.23635727 109.19628656 -43.59733931 98.07459299 -50.9375 86.9375 C-51.55428619 86.00356415 -52.17107239 85.0696283 -52.80654907 84.10739136 C-54.57005002 81.43644958 -56.33050676 78.76352968 -58.08984375 76.08984375 C-58.6012088 75.31543945 -59.11257385 74.54103516 -59.63943481 73.74316406 C-70.1279131 57.76228901 -76.93069279 43.82574108 -73.31640625 24.30859375 C-69.90716139 12.32672488 -63.26311507 2.69793266 -52.29296875 -3.5390625 C-35.04582136 -11.78874699 -15.97836887 -10.98432836 0 0 Z " fill="#117865" transform="translate(413,305)"/>
<path d="M0 0 C0.81567837 -0.00445784 1.63135674 -0.00891569 2.47175264 -0.01350862 C3.36239774 -0.01332426 4.25304284 -0.01313989 5.17067719 -0.01294994 C6.12117935 -0.01662663 7.07168151 -0.02030332 8.05098677 -0.02409142 C11.2443314 -0.03512737 14.43764349 -0.038972 17.63100433 -0.04278088 C19.91751458 -0.04904569 22.20402381 -0.05569251 24.49053192 -0.0626936 C32.00805197 -0.08373772 39.52557222 -0.09409768 47.04311371 -0.10406017 C49.63197592 -0.10810788 52.22083802 -0.1122248 54.80970001 -0.11641026 C65.58082342 -0.13328075 76.35194314 -0.14791433 87.12307739 -0.155159 C89.91706087 -0.15706876 92.71104433 -0.15898911 95.50502777 -0.16094494 C96.54661896 -0.16167055 96.54661896 -0.16167055 97.60925239 -0.16241082 C108.84623192 -0.17070281 120.0831047 -0.1960257 131.32003766 -0.22852562 C142.86895595 -0.26165416 154.41780407 -0.27928073 165.9667716 -0.28280324 C172.44609169 -0.28515156 178.92524313 -0.29408379 185.40451813 -0.31926441 C191.50469655 -0.34258814 197.60459578 -0.34676086 203.70480728 -0.33650303 C205.93800918 -0.33600858 208.17122503 -0.3423021 210.40438461 -0.35605907 C226.15591925 -0.44762646 239.48478257 0.2152311 251.88686371 11.13422108 C262.28524505 22.23115011 265.62407702 34.09196494 265.19545746 49.06390858 C264.49451612 61.41327335 258.98812429 71.51263057 250.13686371 79.94672108 C240.08467835 88.17476469 227.95646717 90.45617471 215.29239655 90.38818836 C213.92527374 90.39286833 213.92527374 90.39286833 212.5305323 90.39764285 C209.50544295 90.40555964 206.48055773 90.399324 203.45546722 90.39301014 C201.27482232 90.39572283 199.09417833 90.39928532 196.91353607 90.40363026 C191.01066237 90.41272397 185.10785883 90.40922229 179.20498395 90.40287209 C173.01617324 90.39779583 166.82736839 90.40250812 160.63855743 90.40564442 C150.24597347 90.40927959 139.85341796 90.404497 129.46083832 90.39496326 C117.46160185 90.38408246 105.46245173 90.3876034 93.4632135 90.39861608 C83.14529737 90.40770513 72.82740165 90.40896622 62.5094828 90.40373874 C56.35395471 90.40062758 50.19845853 90.40018615 44.04293251 90.40681171 C38.25380156 90.41260799 32.46475786 90.40854657 26.67563629 90.3970232 C24.55651176 90.39438868 22.43737983 90.39512095 20.31825829 90.39954853 C2.72241812 90.43291018 -12.79207678 90.20002182 -26.48813629 77.57172108 C-36.97697249 66.44105593 -38.67892156 54.03723402 -38.45688629 39.50140858 C-37.94493239 27.31263945 -32.10292757 17.71671092 -23.42563629 9.44672108 C-16.97421838 4.01460233 -8.53070161 0.02170957 0 0 Z " fill="#117865" transform="translate(420.1131362915039,637.8657789230347)"/>
</svg>
