<?xml version="1.0" encoding="UTF-8"?>
<svg version="1.1" xmlns="http://www.w3.org/2000/svg" width="1024" height="1024">
<path d="M0 0 C2.2647858 -0.00417929 4.52956951 -0.00966005 6.79434937 -0.01631981 C12.98102431 -0.03071497 19.16756536 -0.02654825 25.35424745 -0.019153 C31.35290536 -0.014897 37.35153065 -0.02474672 43.35017881 -0.03406062 C56.36821178 -0.05367648 69.38620483 -0.0560847 82.40424905 -0.05086542 C93.79875271 -0.04629959 105.19324061 -0.04691819 116.58774376 -0.05270576 C118.11907684 -0.05346265 119.65040991 -0.05421863 121.18174299 -0.05497371 C123.48962553 -0.05611897 125.79750807 -0.05726885 128.1053906 -0.05843295 C149.54806929 -0.06913023 170.99074275 -0.07387116 192.43342304 -0.06596279 C193.24087792 -0.06566562 194.0483328 -0.06536844 194.880256 -0.06506227 C201.43639871 -0.06261359 207.99254136 -0.06000187 214.548684 -0.05737813 C240.11550402 -0.04727773 265.68225835 -0.05563032 291.24906921 -0.07887268 C320.00791177 -0.10497489 348.76671478 -0.11778531 377.52556962 -0.11068493 C380.59506141 -0.10996893 383.66455322 -0.10929453 386.73404503 -0.10864449 C387.4897696 -0.10847468 388.24549417 -0.10830487 389.02411949 -0.10812991 C400.40583786 -0.105832 411.78751939 -0.11377959 423.16922951 -0.12693596 C436.12102175 -0.14188099 449.07272794 -0.14264526 462.02451841 -0.12486505 C468.62736959 -0.1161725 475.2300924 -0.11417948 481.83294487 -0.1295166 C487.8873748 -0.14340529 493.94150075 -0.13854659 499.99591329 -0.11927737 C502.17610772 -0.1155299 504.35632675 -0.11840276 506.53649918 -0.12888902 C523.55868545 -0.20488542 539.91805537 1.3920828 555.73661804 8.13768005 C556.97774353 8.65201599 556.97774353 8.65201599 558.24394226 9.17674255 C569.434029 13.95164427 579.12934692 20.48075944 588.36161804 28.38768005 C589.18275085 29.07475037 590.00388367 29.76182068 590.84989929 30.4697113 C607.63062595 44.95385329 618.94059382 63.67219464 626.36161804 84.38768005 C626.75993835 85.48338318 627.15825867 86.5790863 627.56864929 87.70799255 C635.23704176 110.62700824 634.90054932 134.06320928 630.87236023 157.65354919 C630.60443332 159.26000559 630.33702414 160.86654841 630.0700798 162.47316837 C629.18343986 167.7808045 628.27493864 173.08457763 627.36161804 178.38768005 C627.12512197 179.76204106 627.12512197 179.76204106 626.88384819 181.16416693 C624.37629051 195.71775004 621.81551336 210.26189658 619.24774718 224.80495644 C618.17533677 230.8821687 617.1059432 236.959912 616.03613281 243.0375824 C613.8337852 255.54630464 611.62832444 268.05447589 609.4218778 280.56247552 C609.24327768 281.57493357 609.24327768 281.57493357 609.06106949 282.60784531 C608.94173232 283.28434753 608.82239515 283.96084974 608.6994417 284.65785203 C607.3658345 292.21810204 606.03298949 299.77848638 604.70021057 307.33888245 C604.45553836 308.72680453 604.21086608 310.1147266 603.96619374 311.50264865 C603.47418591 314.29361448 602.98218315 317.08458121 602.49018347 319.87554848 C601.24400949 326.94470956 599.9977859 334.0138619 598.75152588 341.08300781 C598.62703489 341.78916348 598.50254389 342.49531915 598.37428045 343.22287347 C596.849731 351.87057249 595.32485285 360.51821345 593.79955348 369.16578023 C587.14334849 406.90262439 580.50392152 444.6423699 573.88189466 482.38522642 C572.04635714 492.8468568 570.20921311 503.3082039 568.37055969 513.76928711 C568.19176281 514.78657306 568.19176281 514.78657306 568.00935386 515.82441024 C566.82068287 522.58735105 565.63178817 529.3502525 564.44260799 536.1131038 C563.85862255 539.4342832 563.2747089 542.75547522 562.69084167 546.07667542 C562.51862391 547.05629 562.51862391 547.05629 562.34292699 548.05569478 C560.3915289 559.15670358 558.44645507 570.25881487 556.50285798 581.36119187 C554.7774578 591.21449419 553.04614401 601.06674611 551.31025046 610.91820514 C550.31239114 616.58229503 549.31712693 622.24680759 548.32905006 627.91261292 C547.42376517 633.103435 546.51092953 638.29287298 545.59235144 643.48135865 C545.26372958 645.34505314 544.93776368 647.2092186 544.6149106 649.07392108 C539.0754355 681.0378835 539.0754355 681.0378835 532.67411804 694.57518005 C532.33944519 695.30164734 532.00477234 696.02811462 531.65995789 696.77659607 C526.16001589 708.37375315 519.52346309 718.81476212 510.58818054 728.0556488 C508.32313322 730.3499326 508.32313322 730.3499326 506.39286804 732.9150238 C490.00511362 752.86396332 460.57623154 765.63874757 435.36161804 768.38768005 C427.98466536 768.76590796 420.58840011 768.6666875 413.20425415 768.65510559 C410.94292171 768.65884528 408.68159056 768.66344807 406.42026144 768.66883624 C400.22457639 768.68104225 394.02894544 768.68080859 387.83325112 768.67844748 C381.83150774 768.67808073 375.82978258 768.68707072 369.82804713 768.69567326 C356.04113609 768.71498338 342.25423996 768.72064038 328.46731698 768.72178738 C317.81654251 768.72270766 307.16577387 768.72683056 296.5150013 768.73318863 C293.4454009 768.73498382 290.3758005 768.73676344 287.30620009 768.73853838 C286.54301086 768.73898048 285.77982162 768.73942258 284.99350545 768.73987807 C263.53511705 768.75218125 242.07673067 768.76007974 220.61833858 768.75919151 C219.80981964 768.75916036 219.0013007 768.7591292 218.16828119 768.7590971 C214.07069684 768.75893089 209.9731125 768.75873281 205.87552815 768.75852768 C205.0617851 768.75848779 204.24804205 768.7584479 203.40964012 768.7584068 C201.76405374 768.75832593 200.11846735 768.75824233 198.47288097 768.75815602 C172.87986239 768.75693097 147.28689684 768.77193734 121.69389343 768.79930115 C92.9160391 768.83005775 64.13821961 768.84723147 35.36034781 768.8453747 C32.28854692 768.84522545 29.21674604 768.84512803 26.14494514 768.84506607 C25.38863457 768.84504276 24.632324 768.84501945 23.85309493 768.84499544 C11.71014681 768.84493403 -0.43275507 768.85767676 -12.57568946 768.8749306 C-24.7915568 768.8919284 -37.00735688 768.89382859 -49.22322953 768.88071196 C-55.83415726 768.87399529 -62.4449541 768.87402562 -69.05587578 768.89141846 C-75.11786157 768.90720251 -81.17954933 768.90423094 -87.24152809 768.88685019 C-89.42453607 768.88379204 -91.6075666 768.88736749 -93.79054797 768.89857034 C-110.8225308 768.98012828 -127.18548665 767.38725708 -143.01338196 760.63768005 C-144.25450745 760.12334412 -144.25450745 760.12334412 -145.52070618 759.59861755 C-156.71079292 754.82371583 -166.40611084 748.29460067 -175.63838196 740.38768005 C-176.45951477 739.70060974 -177.28064758 739.01353943 -178.12666321 738.3056488 C-202.48038933 717.28493652 -217.90999528 685.38086746 -220.63838196 653.38768005 C-221.63628515 639.02556124 -220.59065301 625.22121469 -218.15644836 611.07322693 C-217.88790053 609.46981704 -217.61999143 607.86630006 -217.35265541 606.26268768 C-216.46500857 600.96804235 -215.55352566 595.67763236 -214.63838196 590.38768005 C-214.48042239 589.47248093 -214.32246283 588.5572818 -214.15971661 587.61434937 C-211.65362955 573.10236087 -209.09581046 558.59960411 -206.52940679 544.09818077 C-205.46390316 538.07397515 -204.40153273 532.0492169 -203.33880615 526.02452087 C-201.514475 515.68436401 -199.6884634 505.34450496 -197.8611908 495.00486755 C-194.98446821 478.72667457 -192.11113614 462.4478841 -189.23872375 446.16893005 C-189.11832894 445.4866152 -188.99793412 444.80430036 -188.87389098 444.1013093 C-187.77396973 437.8676889 -186.67407965 431.634063 -185.57426924 425.40042305 C-184.34192079 418.41557899 -183.10947681 411.43075181 -181.87678337 404.44596863 C-174.9231471 365.04439746 -167.98705364 325.6397904 -161.07197571 286.23143005 C-160.65413378 283.85039227 -160.23628965 281.46935488 -159.8184433 279.08831787 C-156.08182591 257.79510026 -152.3468249 236.50159965 -148.61513394 215.2075181 C-147.17624192 206.9971344 -145.73641445 198.78691506 -144.29595309 190.57680655 C-143.4773174 185.91056148 -142.65913735 181.2442379 -141.84235954 176.57766724 C-140.23768282 167.41066078 -138.6264186 158.24488909 -136.99962527 149.081779 C-136.20401225 144.59677343 -135.41464227 140.11076417 -134.63349533 135.62321472 C-133.76958854 130.66050788 -132.89512017 125.69975501 -132.0143255 120.74001884 C-131.68091563 118.85224775 -131.35105856 116.96384483 -131.02520525 115.07475471 C-126.12177037 86.6862105 -116.86437789 60.5089917 -96.63838196 39.38768005 C-95.46275696 37.87174255 -95.46275696 37.87174255 -94.26338196 36.32518005 C-90.19208958 31.76921001 -85.46037781 28.1206265 -80.63838196 24.38768005 C-79.86623352 23.78826599 -79.09408508 23.18885193 -78.29853821 22.5712738 C-54.57366462 5.09192249 -28.89155205 -0.08730359 0 0 Z M-34.82588196 99.57518005 C-41.65379186 108.22839425 -43.79656769 118.3709124 -45.64619446 128.99705505 C-45.93350572 130.58340306 -46.22190274 132.16955469 -46.51121521 133.75553894 C-47.37411088 138.51699555 -48.21448193 143.28223307 -49.05117798 148.0483551 C-49.67596991 151.60143609 -50.30535359 155.15368199 -50.93562317 158.70579529 C-54.35691113 177.99672161 -57.7357028 197.29500804 -61.10766101 216.59460884 C-62.86855922 226.67232759 -64.63318872 236.7493925 -66.39814758 246.82640076 C-66.64728448 248.24884604 -66.64728448 248.24884604 -66.90145445 249.70002759 C-67.76050885 254.60467255 -68.61963128 259.50930559 -69.47879791 264.41393089 C-70.18872274 268.4666656 -70.89851888 272.51942282 -71.6082077 276.57219887 C-77.80152696 311.9395137 -84.01614778 347.3030603 -90.23994446 382.6650238 C-90.46544023 383.94625988 -90.690936 385.22749595 -90.92326498 386.54755735 C-94.98692336 409.63646632 -99.05187217 432.72514807 -103.11720335 455.81376255 C-103.9810249 460.71977763 -104.84481557 465.62579815 -105.70860648 470.53181863 C-106.34610851 474.15249021 -106.98366988 477.77315135 -107.62123299 481.39381218 C-109.67311198 493.04705934 -111.72352926 504.70056071 -113.77073669 516.35462952 C-114.55467656 520.81666723 -115.33870014 525.27869023 -116.12275696 529.7407074 C-116.31321649 530.8247675 -116.50367603 531.9088276 -116.69990706 533.025738 C-119.08897334 546.62095226 -121.4933433 560.21332719 -123.91651154 573.80250454 C-125.0993714 580.43674301 -126.27627056 587.0720341 -127.45138597 593.70764834 C-128.3664777 598.87198731 -129.28943088 604.03483153 -130.21890926 609.19659948 C-130.77770156 612.31095643 -131.32867838 615.42665786 -131.87742615 618.54279876 C-132.12788656 619.95581249 -132.38154616 621.368264 -132.63885498 622.7800467 C-135.34573217 637.64924964 -136.30075485 652.19149211 -127.63838196 665.38768005 C-121.23067512 674.12670151 -113.87740176 678.97467345 -103.63838196 682.38768005 C-100.75946372 682.48725537 -97.90468605 682.5288048 -95.0255518 682.52469444 C-93.68349515 682.52867218 -93.68349515 682.52867218 -92.31432626 682.53273028 C-89.2887132 682.54044573 -86.26314057 682.54098331 -83.23751831 682.5415802 C-81.05733646 682.54559336 -78.87715536 682.55003133 -76.69697517 682.55485976 C-70.68408701 682.56684771 -64.67120688 682.57247886 -58.6583091 682.57704091 C-52.18158383 682.58298868 -45.7048682 682.59460065 -39.22814941 682.60533142 C-24.31489946 682.62901091 -9.40164569 682.64326622 5.51161742 682.65556084 C10.67161611 682.65981516 15.83161443 682.66438088 20.99161267 682.66914415 C48.42657959 682.69440608 75.8615471 682.71645461 103.29652309 682.7288723 C109.65407755 682.73179364 116.01163199 682.73476116 122.3691864 682.73777771 C123.15903526 682.73814862 123.94888412 682.73851953 124.76266779 682.73890168 C150.36473399 682.75105403 175.96673139 682.78199211 201.56876528 682.82369923 C227.88852618 682.86649735 254.20825075 682.89311472 280.5280474 682.89834701 C284.24651266 682.89908745 287.96497787 682.89999813 291.68344307 682.90100479 C292.41526425 682.90119541 293.14708542 682.90138602 293.901083 682.90158241 C305.67306442 682.9050944 317.44495963 682.92538514 329.21690941 682.95180143 C341.05401085 682.97796298 352.89100419 682.98525239 364.72813045 682.97470014 C371.13971106 682.96950958 377.55101783 682.97242671 383.96255875 682.99716568 C389.83461314 683.01963388 395.7061966 683.01893653 401.57825912 682.99996181 C403.70017886 682.99715844 405.82213038 683.00277892 407.94399898 683.01777475 C421.26795443 683.10616489 433.16332812 682.87815325 443.67411804 673.45018005 C453.06785294 664.06190833 456.38782075 652.35016249 458.49443054 639.59080505 C458.77172012 638.01797307 459.05105744 636.44550116 459.33210754 634.87333679 C459.98505186 631.19540223 460.62322401 627.51523293 461.25285339 623.83323669 C462.37708528 617.27122094 463.53713471 610.71574397 464.70039225 604.16054881 C467.00611899 591.16368223 469.29034727 578.16310945 471.56278992 565.16038513 C471.70970732 564.31974223 471.85662473 563.47909932 472.00799417 562.61298239 C472.61569095 559.13558186 473.22333397 555.65817195 473.830899 552.1807484 C475.59179186 542.10302979 477.35642498 532.02596657 479.12138367 521.94895935 C479.28747493 521.0006625 479.4535662 520.05236564 479.62469053 519.07533252 C480.48374494 514.17068756 481.34286737 509.26605452 482.202034 504.36142921 C482.91195883 500.3086945 483.62175497 496.25593729 484.33144379 492.20316124 C490.52476305 456.83584641 496.73938386 421.47229981 502.96318054 386.1103363 C503.18867631 384.82910023 503.41417209 383.54786416 503.64650106 382.22780275 C507.71015945 359.13889379 511.77510826 336.05021204 515.84043944 312.96159756 C516.70426099 308.05558248 517.56805165 303.14956196 518.43184257 298.24354148 C519.0693446 294.62286989 519.70690596 291.00220876 520.34446907 287.38154793 C522.39634806 275.72830077 524.44676534 264.0747994 526.49397278 252.42073059 C527.27791264 247.95869288 528.06193622 243.49666988 528.84599304 239.03465271 C529.13168234 237.40856256 529.13168234 237.40856256 529.42314315 235.74962211 C531.81220943 222.15440785 534.21657939 208.56203292 536.63974762 194.97285557 C537.82260749 188.33861709 538.99950664 181.703326 540.17462206 175.06771177 C541.08971378 169.9033728 542.01266696 164.74052858 542.94214535 159.57876062 C543.50093765 156.46440368 544.05191447 153.34870225 544.60066223 150.23256135 C544.85112264 148.81954762 545.10478225 147.40709611 545.36209106 145.99531341 C548.06896825 131.12611047 549.02399093 116.58386799 540.36161804 103.38768005 C533.9539112 94.64865859 526.60063784 89.80068665 516.36161804 86.38768005 C513.48080937 86.28898208 510.62419147 86.24836787 507.74320126 86.25345898 C506.40024582 86.24993063 506.40024582 86.24993063 505.03015998 86.24633101 C502.00252672 86.23962541 498.97493622 86.2400997 495.94729614 86.24050903 C493.76568904 86.23721137 491.58408255 86.23348602 489.40247685 86.22936755 C483.385726 86.2193282 477.36898513 86.21562765 471.35222709 86.21297824 C464.8714511 86.2090809 458.39068305 86.19950215 451.90991211 86.19076538 C436.98814751 86.17163705 422.0663817 86.16174226 407.1446078 86.1533047 C399.77183106 86.14909937 392.39905513 86.14387721 385.02627907 86.13862017 C359.79188414 86.1207285 334.55748897 86.10573245 309.32308865 86.09829998 C307.73853008 86.09782522 306.15397152 86.09734933 304.56941295 86.09687232 C303.39070505 86.09651775 303.39070505 86.09651775 302.18818486 86.09615603 C298.20685204 86.09495482 294.22551922 86.09373937 290.2441864 86.09251404 C289.05902083 86.09215381 289.05902083 86.09215381 287.84991253 86.09178631 C262.2338783 86.08389376 236.61789037 86.06046361 211.00187636 86.02795809 C183.92390198 85.99366012 156.84595469 85.97394883 129.76795822 85.97065574 C126.79531831 85.9702382 123.82267842 85.96975863 120.85003853 85.96923256 C120.1180825 85.96910937 119.38612648 85.96898618 118.63198997 85.96885925 C106.85218987 85.9665271 95.07244354 85.9508662 83.29266261 85.93039071 C71.45112404 85.9101345 59.60965562 85.90498785 47.76810288 85.91416135 C41.35275791 85.91871455 34.93758755 85.91676036 28.52226639 85.8973999 C22.64913738 85.8798286 16.77631113 85.88071712 10.90317918 85.89629719 C8.77860603 85.89868243 6.65401226 85.89430251 4.52947073 85.88246854 C-11.53838578 85.79851341 -23.32289399 87.34044985 -34.82588196 99.57518005 Z " fill="#000000" transform="translate(305.6383819580078,127.61231994628906)"/>
<path d="M0 0 C7.63992817 6.34065875 12.68975119 14.58174498 18.05435181 22.80819702 C20.31755874 26.27864501 22.6013887 29.73535759 24.88389587 33.19313049 C26.08990243 35.02043707 27.29485395 36.84844036 28.49879456 38.67710876 C34.42939741 47.67823669 40.46631668 56.60591745 46.51254272 65.52960205 C56.74805268 80.64381686 66.90308211 95.81028276 76.96273804 111.04214478 C78.22002504 112.94580262 79.47831727 114.84879701 80.73770142 116.75106812 C103.11631637 150.57117105 103.11631637 150.57117105 101 172 C97.73823504 187.31129473 84.75510238 197.4021072 74.14331055 208.06542969 C72.87066826 209.34763379 71.59819171 210.63000242 70.3258667 211.91252136 C66.18333295 216.08613972 62.03551099 220.25447902 57.88671875 224.421875 C57.17795601 225.13393506 56.46919327 225.84599512 55.73895288 226.57963276 C49.04284918 233.3064771 42.34470939 240.0312879 35.64172649 246.75127792 C27.10510271 255.30982872 18.57871411 263.87830174 10.06590241 272.46053958 C4.05658678 278.51717944 -1.96425783 284.56220602 -7.99365395 290.59885526 C-11.58522068 294.19536014 -15.17162371 297.7966737 -18.74566078 301.41060638 C-22.10692086 304.80890083 -25.48232723 308.1924934 -28.86875916 311.56569862 C-30.1026091 312.79960221 -31.33141311 314.03857755 -32.5544796 315.2831707 C-42.31489805 325.20600784 -52.07515416 332.96286424 -66.54907227 333.29272461 C-79.83951592 333.39729245 -89.70963818 330.92065495 -100 322 C-109.17704743 312.22521385 -113.57862144 301.28800412 -113.2421875 287.88671875 C-111.92247864 272.15664056 -103.59622858 261.96101778 -92.64257812 251.26782227 C-91.61440093 250.24898444 -90.58715522 249.22920588 -89.5607605 248.20857239 C-87.36914863 246.03285367 -85.1715483 243.86344798 -82.96894836 241.69885445 C-79.48736425 238.27659456 -76.02203235 234.83817902 -72.55895996 231.39720154 C-63.96590395 222.86392231 -55.35155176 214.35222739 -46.73376465 205.84393311 C-40.01324418 199.20826545 -33.29849216 192.56697148 -26.6006465 185.90840763 C-23.15634629 182.48561197 -19.70056632 179.07497952 -16.23567104 175.67303956 C-14.09080423 173.56218375 -11.95630551 171.4410809 -9.82458878 169.31695366 C-8.83198668 168.33213838 -7.83505956 167.35166111 -6.83362961 166.37582397 C-5.47134122 165.0471915 -4.12559846 163.70165599 -2.78088379 162.35523987 C-2.02212196 161.60628228 -1.26336014 160.8573247 -0.48160553 160.08567142 C1.2482746 158.13040627 1.2482746 158.13040627 0.80043411 155.84417725 C-0.08331695 153.80804015 -1.08982133 152.0415601 -2.31542969 150.18920898 C-2.80341537 149.44581268 -3.29140106 148.70241638 -3.79417419 147.93649292 C-4.33131546 147.13116119 -4.86845673 146.32582947 -5.421875 145.49609375 C-6.26776939 144.2138945 -6.26776939 144.2138945 -7.13075256 142.90579224 C-8.99809357 140.07918237 -10.87389489 137.25829898 -12.75 134.4375 C-14.05198576 132.47082649 -15.353658 130.50394539 -16.6550293 128.53686523 C-27.15305285 112.69066948 -37.76923475 96.92363018 -48.45410156 81.20288086 C-72.93241027 45.1411822 -72.93241027 45.1411822 -69.5390625 24.1484375 C-66.58323492 13.19448823 -59.85166005 3.20633973 -50.13671875 -2.7578125 C-33.78612918 -11.3590121 -15.12164685 -11.80508933 0 0 Z " fill="#000000" transform="translate(411,307)"/>
<path d="M0 0 C0.80932828 -0.00445784 1.61865656 -0.00891569 2.45250994 -0.01350862 C3.77782792 -0.01323207 3.77782792 -0.01323207 5.12992001 -0.01294994 C6.07296063 -0.01662663 7.01600125 -0.02030332 7.98761886 -0.02409142 C11.15565845 -0.03512677 14.32366523 -0.03897188 17.49172115 -0.04278088 C19.76014974 -0.0490457 22.02857731 -0.05569252 24.29700375 -0.0626936 C31.75439902 -0.08373623 39.21179451 -0.09409698 46.66921139 -0.10406017 C49.23704635 -0.10810782 51.80488121 -0.11222474 54.37271595 -0.11641026 C65.05548422 -0.13327997 75.73824908 -0.14791398 86.42102814 -0.155159 C89.19198832 -0.15706877 91.9629485 -0.15898912 94.73390865 -0.16094494 C95.42258386 -0.16142868 96.11125907 -0.16191242 96.82080322 -0.16241082 C107.96792732 -0.17070475 119.11494389 -0.19603129 130.26202107 -0.22852562 C141.71714565 -0.26164449 153.17219009 -0.27927975 164.62736744 -0.28280324 C171.05467723 -0.2851524 177.48181708 -0.29409569 183.90908146 -0.31926441 C189.95919014 -0.34257308 196.00901731 -0.3467669 202.05915928 -0.33650303 C204.27504317 -0.33600822 206.49094104 -0.3423122 208.70678234 -0.35605907 C224.89194225 -0.45082026 237.60532126 0.75642381 250.07546139 12.09906483 C258.81340724 21.13099765 262.18268578 31.96615764 262.16188717 44.283391 C261.95490499 56.05160377 257.18649566 65.74930171 249.29030514 74.38422108 C239.55443479 83.58024393 227.38829642 86.45348996 214.40312862 86.39491749 C213.4884843 86.39874304 212.57383997 86.40256858 211.63147914 86.40651006 C208.58947209 86.41676733 205.54765635 86.41286179 202.50563717 86.40887928 C200.3152871 86.41322978 198.12493855 86.41841405 195.93459225 86.42436695 C190.00067435 86.43773175 184.06682024 86.43833842 178.13289022 86.43580365 C173.1727551 86.43473224 168.21263279 86.43962165 163.25250041 86.44440907 C150.87887261 86.4561288 138.50527619 86.45528416 126.1316465 86.44885226 C116.07235872 86.44400596 106.01315139 86.45257722 95.95387936 86.47040272 C84.25178309 86.49106498 72.54974286 86.50149792 60.84762752 86.49782723 C54.66076444 86.49601691 48.47398458 86.49862562 42.28713512 86.51254177 C36.46761954 86.52514247 30.64828543 86.52315467 24.82877254 86.51013088 C22.69835886 86.50777046 20.56793231 86.51048054 18.43753338 86.51875401 C1.37830126 86.58020467 -13.0017408 85.31579109 -26.16281986 73.28656483 C-36.20713663 62.03774666 -37.97124238 49.79866486 -37.28000736 35.37201405 C-36.54627184 26.96523924 -32.54306905 20.3459302 -27.08469486 14.13422108 C-26.58324955 13.5283617 -26.08180424 12.92250233 -25.56516361 12.29828358 C-19.24240672 5.25248636 -9.59517145 0.02461229 0 0 Z " fill="#000000" transform="translate(421.0846948623657,639.8657789230347)"/>
</svg>
